# xmcd CD database file
#
# Track frame offsets:
#	150
#	7535
#	33095
#	55087
#	60522
#	82957
#	90822
#	108282
#	111662
#	119437
#	141445
#	163947
#
# Disc length: 2419 seconds
#
# Revision: 0
# Processed by: cddbd v1.5.1PL2 Copyright (c) Steve Scherf et al.
# Submitted via: CDex 1.51
#
DISCID=8c09710c
DTITLE=デジモンアドベンチャー - デジモンアドベンチャー キャラクターソング＋ミニドラマ
DYEAR=1999
DGENRE=Other
TTITLE0=Butter-Fly(TVサイズ)
TTITLE1=ドラマ：SOS！5年A組
TTITLE2=勇気を翼にして〜八神太一のテーマ〜
TTITLE3=ドラマ：武之内 空の「ときめきイエローカード！」
TTITLE4=明日はもっと〜武之内 空のテーマ〜
TTITLE5=ドラマ：丈が歌手デビュー！？(前編)
TTITLE6=違う僕がいる〜城戸 丈のテーマ〜
TTITLE7=ドラマ：丈が歌手デビュー！？(後編)
TTITLE8=I wish(TVサイズ)
TTITLE9=勇気を翼にして(オリジナル・カラオケ)
TTITLE10=明日はもっと(オリジナル・カラオケ)
TTITLE11=違う僕がいる(オリジナル・カラオケ)
EXTD=YEAR: 1999
EXTT0=
EXTT1=
EXTT2=
EXTT3=
EXTT4=
EXTT5=
EXTT6=
EXTT7=
EXTT8=
EXTT9=
EXTT10=
EXTT11=
PLAYORDER=
